<svg id="Layer_1" data-name="Layer 1" xmlns="http://www.w3.org/2000/svg" viewBox="0 0 22.04 22.04"><defs><style>.cls-1{font-size:28.44px;fill:#333;font-family:Raleway-Regular, Raleway;}.cls-2{letter-spacing:-0.03em;}.cls-3{letter-spacing:-0.02em;}.cls-4{letter-spacing:0em;}.cls-5{letter-spacing:-0.02em;}.cls-6{fill:none;stroke:#4682b4;stroke-linecap:round;stroke-linejoin:round;stroke-width:1.57px;}.cls-7{fill:#4682b4;}</style></defs><title>(i)</title><text class="cls-1" transform="translate(-323.8 20.86)">Click <tspan class="cls-2" x="71.38" y="0">f</tspan><tspan x="80.02" y="0">o</tspan><tspan class="cls-3" x="96.95" y="0">r</tspan><tspan x="106.25" y="0" xml:space="preserve"> d</tspan><tspan class="cls-4" x="131.19" y="0">a</tspan><tspan x="146.57" y="0">ta d</tspan><tspan class="cls-5" x="196.54" y="0">o</tspan><tspan x="212.92" y="0">wnload</tspan></text><circle class="cls-6" cx="11.02" cy="11.02" r="10.23"/><path class="cls-7" d="M12.23,9v6.17a1.13,1.13,0,0,0,.17.74c.11.14.37.2.79.2v.76H8.85v-.76H9c.4,0,.66-.07.76-.21a1.23,1.23,0,0,0,.16-.73V11.2a1.23,1.23,0,0,0-.16-.74c-.11-.14-.36-.21-.76-.21H8.85V9.5ZM9.83,6.49a1.27,1.27,0,0,1,.38-.9,1.27,1.27,0,0,1,1.81,0,1.25,1.25,0,0,1,.36.9,1.28,1.28,0,0,1-1.27,1.29,1.2,1.2,0,0,1-.91-.39A1.28,1.28,0,0,1,9.83,6.49Z"/></svg>