<svg width="479" height="80" viewBox="0 0 479 80" fill="none" xmlns="http://www.w3.org/2000/svg">
<path d="M70.288 19.9876C69.6112 18.8393 68.6428 17.8902 67.481 17.2368L39.4108 1.00285C38.2729 0.345871 36.9821 0 35.6681 0C34.3542 0 33.0634 0.345871 31.9254 1.00285L3.74299 17.2368C2.60031 17.9052 1.65319 18.862 0.996374 20.0115C0.339561 21.1609 -0.00391695 22.4626 0.000299984 23.7865V56.2262C-0.0115641 57.5516 0.328677 58.8563 0.98625 60.007C1.64382 61.1578 2.59515 62.1133 3.74299 62.776L31.8787 78.9818C33.0166 79.6388 34.3074 79.9847 35.6213 79.9847C36.9353 79.9847 38.2261 79.6388 39.364 78.9818L67.5184 62.7479C68.6844 62.0999 69.654 61.1496 70.3254 59.997C70.9884 58.8607 71.3401 57.5698 71.3453 56.2543V23.7584C71.3311 22.4303 70.9663 21.1295 70.288 19.9876V19.9876ZM39.4108 13.8777C39.4108 14.0648 39.4857 14.2707 39.5325 14.4672C40.3113 17.3655 42.0465 19.9156 44.4565 21.704C46.8665 23.4924 49.81 24.4142 52.8096 24.3198C50.9728 26.1289 49.5797 28.3386 48.7395 30.776C45.4438 30.1758 42.3518 28.7569 39.7477 26.6496C37.1358 24.5516 35.0901 21.8337 33.7968 18.7432C33.8063 18.7064 33.8063 18.6677 33.7968 18.6309L33.5629 18.0321C33.5209 17.9498 33.4925 17.8614 33.4787 17.7701C33.4163 17.6281 33.3662 17.4809 33.3289 17.3303L33.198 16.9561L33.1231 16.6941C33.0684 16.5383 33.0246 16.3788 32.9921 16.2169C32.7774 15.421 32.618 14.6113 32.5149 13.7935C34.8132 13.5127 37.1388 13.541 39.4295 13.8777H39.4108ZM14.9149 23.6555L15.495 23.852C18.3974 24.6163 21.4728 24.379 24.2236 23.1785C26.9743 21.978 29.2396 19.8845 30.6529 17.2368C31.3027 19.7302 32.5158 22.0414 34.1991 23.9923C32.0428 26.5292 29.2879 28.4883 26.1838 29.6924C23.0797 30.8964 19.7243 31.3075 16.4213 30.8882H16.1687L15.8225 30.8695C15.6275 30.8451 15.4339 30.8108 15.2424 30.7666H15.1488C14.6716 30.673 14.2132 30.5701 13.736 30.4765C12.9373 30.242 12.1531 29.9608 11.3874 29.6344C12.2965 27.4956 13.4824 25.4855 14.9149 23.6555ZM18.0868 52.259L17.6845 52.7643L17.5067 52.9795L17.1886 53.3257C17.1086 53.4287 17.021 53.5257 16.9266 53.6157L16.7582 53.8029L16.3933 54.1771C15.808 54.777 15.1828 55.3366 14.5219 55.852C13.1337 53.9989 11.992 51.9734 11.1254 49.8262C11.2752 49.6859 11.4342 49.5549 11.5746 49.4146C13.6946 47.2958 15.0366 44.5228 15.3828 41.5455C15.735 38.5717 15.0758 35.5658 13.5114 33.0122C15.9968 33.6968 18.607 33.7961 21.1371 33.3023C22.2584 36.4425 22.5799 39.8125 22.0728 43.1081C21.5584 46.4017 20.2301 49.5149 18.2085 52.1654L18.0868 52.259ZM31.8599 66.0882C31.8599 65.8917 31.7851 65.6953 31.7383 65.4894C30.9581 62.597 29.2247 60.0525 26.8185 58.2678C24.4123 56.4831 21.4742 55.5627 18.4798 55.6555C20.3139 53.8406 21.7065 51.6285 22.55 49.19C25.8502 49.7933 28.9477 51.2106 31.5619 53.3133C34.176 55.4161 36.2242 58.1379 37.5208 61.2321C37.5111 61.2657 37.5111 61.3014 37.5208 61.335C37.5956 61.5409 37.6705 61.7374 37.7547 61.9432C37.8389 62.1491 37.8202 62.1116 37.8389 62.1958C37.9069 62.3398 37.9602 62.4903 37.998 62.645C38.0565 62.7598 38.0975 62.8828 38.1196 63.0099L38.1944 63.2719C38.2467 63.4221 38.2905 63.5752 38.3254 63.7303C38.5387 64.527 38.7012 65.3365 38.812 66.1537C36.5019 66.4386 34.1643 66.4166 31.8599 66.0882V66.0882ZM56.3746 56.376C56.1781 56.3105 56.0003 56.245 55.7944 56.1888C52.8994 55.4156 49.8282 55.6416 47.0776 56.8302C44.3269 58.0187 42.0575 60.1004 40.6366 62.7385C39.9909 60.2435 38.7773 57.9314 37.0904 55.983C39.2504 53.4508 42.0058 51.495 45.1089 50.2913C48.212 49.0876 51.5655 48.6738 54.8681 49.0871H55.205L55.5231 49.1339L56.0939 49.2368H56.1406C56.6182 49.3234 57.09 49.439 57.5535 49.583C58.3507 49.8087 59.1322 50.0869 59.8927 50.4157C58.9897 52.5498 57.8066 54.5542 56.3746 56.376V56.376ZM60.1173 30.1771L59.6588 30.5888C57.5471 32.7137 56.2138 35.4886 55.8742 38.465C55.5346 41.4413 56.2087 44.4453 57.7874 46.9912C55.2996 46.3034 52.6864 46.2009 50.1523 46.6917C49.036 43.5521 48.7209 40.1834 49.2356 36.8912C49.7503 33.5989 51.0784 30.4871 53.0997 27.8379L53.1652 27.7444L53.5769 27.2298L53.7547 27.0239L54.0635 26.6683C54.1477 26.5748 54.2319 26.4719 54.3254 26.3783L54.5032 26.1912L54.8681 25.8075C55.456 25.2132 56.081 24.6569 56.7395 24.142C58.135 25.9903 59.2773 28.0168 60.136 30.1678L60.1173 30.1771Z" fill="#D45A14"/>
<path d="M105.845 15.36H95.6177V34.4H105.845C113.325 34.4 118.003 31.7616 118.003 24.9072C118.003 18.0528 113.325 15.36 105.845 15.36ZM105.899 30.2928H100.296V19.4672H105.899C111.122 19.4672 113.134 21.48 113.134 24.9072C113.134 28.3344 111.122 30.2928 105.899 30.2928Z" fill="#D45A14"/>
<path d="M123.11 15.36V34.4H127.788V15.36H123.11Z" fill="#D45A14"/>
<path d="M143.169 26.784C135.852 26.4576 132.942 24.8256 132.942 20.6368C132.942 16.4752 137.158 14.7344 142.979 14.7344C146.705 14.7344 149.616 15.3328 151.819 16.3392V21.2624C149.235 19.6576 146.46 18.8416 142.979 18.8416C139.089 18.8416 137.566 19.304 137.566 20.528C137.566 21.5888 138.763 22.1056 143.387 22.2688C150.323 22.5136 153.288 24.1456 153.288 28.28C153.288 33.312 148.555 35.0256 143.169 35.0256C139.116 35.0256 135.934 34.4816 133.486 33.3664L133.459 28.1984C135.934 30.0208 138.953 30.9456 143.169 30.9456C146.787 30.9456 148.664 30.184 148.664 28.7696C148.664 27.3552 147.14 26.9744 143.169 26.784Z" fill="#D45A14"/>
<path d="M178.071 19.4672V15.36H158.65V34.4H178.071V30.2656H163.329V26.4576H177.473V22.704H163.329V19.4672H178.071Z" fill="#D45A14"/>
<path d="M201.144 34.4H206.04L196.955 15.36H190.21L181.125 34.4H186.021L187.925 30.32H199.24L201.144 34.4ZM189.72 26.4576L193.583 18.1888L197.445 26.4576H189.72Z" fill="#D45A14"/>
<path d="M218.022 26.784C210.706 26.4576 207.795 24.8256 207.795 20.6368C207.795 16.4752 212.011 14.7344 217.832 14.7344C221.558 14.7344 224.469 15.3328 226.672 16.3392V21.2624C224.088 19.6576 221.314 18.8416 217.832 18.8416C213.942 18.8416 212.419 19.304 212.419 20.528C212.419 21.5888 213.616 22.1056 218.24 22.2688C225.176 22.5136 228.141 24.1456 228.141 28.28C228.141 33.312 223.408 35.0256 218.022 35.0256C213.97 35.0256 210.787 34.4816 208.339 33.3664L208.312 28.1984C210.787 30.0208 213.806 30.9456 218.022 30.9456C221.64 30.9456 223.517 30.184 223.517 28.7696C223.517 27.3552 221.994 26.9744 218.022 26.784Z" fill="#D45A14"/>
<path d="M252.924 19.4672V15.36H233.504V34.4H252.924V30.2656H238.182V26.4576H252.326V22.704H238.182V19.4672H252.924Z" fill="#D45A14"/>
<path d="M280.224 14.8432C286.643 14.8432 292.273 18.0528 292.273 24.9072C292.273 31.7616 286.643 34.9168 280.224 34.9168C273.805 34.9168 268.174 31.7616 268.174 24.9072C268.174 18.0528 273.805 14.8432 280.224 14.8432ZM280.224 30.7552C284.739 30.7552 287.405 28.552 287.405 24.9072C287.405 21.2624 284.739 19.0048 280.224 19.0048C275.709 19.0048 273.043 21.2624 273.043 24.9072C273.043 28.552 275.709 30.7552 280.224 30.7552Z" fill="#D45A14"/>
<path d="M313.54 23.5472C313.54 28.4704 311.228 30.6192 307.338 30.6192C303.422 30.6192 301.11 28.4704 301.11 23.5472V15.36H296.431V23.5472C296.431 31.68 301.49 34.7808 307.338 34.7808C313.132 34.7808 318.218 31.68 318.218 23.5472V15.36H313.54V23.5472Z" fill="#D45A14"/>
<path d="M342.544 15.36H321.436V19.4672H329.651V34.4H334.329V19.4672H342.544V15.36Z" fill="#D45A14"/>
<path d="M364.393 24.2816C366.079 23.4384 366.895 22.1056 366.895 20.2832C366.895 16.8288 363.931 15.36 358.817 15.36H346.713V34.4H359.334C364.991 34.4 368.228 32.3872 368.228 28.7696C368.228 26.4576 366.923 24.9344 364.393 24.2816ZM358.491 19.3856C361.265 19.3856 362.407 19.8752 362.407 21.208C362.407 22.5408 361.265 23.1392 358.491 23.1392H351.391V19.3856H358.491ZM359.415 30.3744H351.391V26.6208H359.415C362.407 26.6208 363.74 26.8656 363.74 28.1712C363.74 29.7216 362.407 30.3744 359.415 30.3744Z" fill="#D45A14"/>
<path d="M388.589 34.4H394.981L388.399 27.4096C391.173 26.6208 392.914 24.9072 392.914 21.6432C392.914 16.8016 389.079 15.36 383.72 15.36H373.275V34.4H377.954V27.9264H382.523L388.589 34.4ZM377.954 19.4672H383.448C386.848 19.4672 388.154 20.0928 388.154 21.6432C388.154 23.1936 386.848 23.8192 383.448 23.8192H377.954V19.4672Z" fill="#D45A14"/>
<path d="M419.099 19.4672V15.36H399.679V34.4H419.099V30.2656H404.357V26.4576H418.501V22.704H404.357V19.4672H419.099Z" fill="#D45A14"/>
<path d="M442.172 34.4H447.068L437.983 15.36H431.238L422.153 34.4H427.049L428.953 30.32H440.268L442.172 34.4ZM430.748 26.4576L434.611 18.1888L438.473 26.4576H430.748Z" fill="#D45A14"/>
<path d="M466.038 34.4H471.75L463.155 22.2416L471.505 15.36H464.869L455.702 23.1392V15.36H451.024V34.4H455.702V28.3344L459.592 25.152L466.038 34.4Z" fill="#D45A14"/>
<path d="M112.019 49.36V62.008L101.547 49.36H95.6177V68.4H100.133V54.9632L111.285 68.4544L116.534 68.4V49.36H112.019Z" fill="#D45A14"/>
<path d="M143.195 53.4672V49.36H123.774V68.4H143.195V64.2656H128.452V60.4576H142.596V56.704H128.452V53.4672H143.195Z" fill="#D45A14"/>
<path d="M178.997 49.36L172.932 62.9872L166.866 49.36H162.732L156.666 62.9872L150.6 49.36H145.704L154.245 68.4H159.087L164.799 55.6704L170.511 68.4H175.352L183.893 49.36H178.997Z" fill="#D45A14"/>
<path d="M195.418 60.784C188.101 60.4576 185.19 58.8256 185.19 54.6368C185.19 50.4752 189.406 48.7344 195.227 48.7344C198.954 48.7344 201.864 49.3328 204.067 50.3392V55.2624C201.483 53.6576 198.709 52.8416 195.227 52.8416C191.338 52.8416 189.814 53.304 189.814 54.528C189.814 55.5888 191.011 56.1056 195.635 56.2688C202.571 56.5136 205.536 58.1456 205.536 62.28C205.536 67.312 200.803 69.0256 195.418 69.0256C191.365 69.0256 188.182 68.4816 185.734 67.3664L185.707 62.1984C188.182 64.0208 191.202 64.9456 195.418 64.9456C199.035 64.9456 200.912 64.184 200.912 62.7696C200.912 61.3552 199.389 60.9744 195.418 60.784Z" fill="#D45A14"/>
<path d="M225.652 58.9072C225.652 63.776 229.052 66.2512 233.567 66.9856L232.86 71.256C226.577 70.304 220.892 66.8768 220.892 58.9072C220.892 50.9376 226.577 47.5104 232.86 46.5584L233.567 50.8288C229.052 51.5632 225.652 54.0384 225.652 58.9072Z" fill="#D45A14"/>
<path d="M250.318 49.36H240.091V68.4H250.318C257.798 68.4 262.477 65.7616 262.477 58.9072C262.477 52.0528 257.798 49.36 250.318 49.36ZM250.373 64.2928H244.77V53.4672H250.373C255.595 53.4672 257.608 55.48 257.608 58.9072C257.608 62.3344 255.595 64.2928 250.373 64.2928Z" fill="#D45A14"/>
<path d="M277.78 48.8432C284.199 48.8432 289.83 52.0528 289.83 58.9072C289.83 65.7616 284.199 68.9168 277.78 68.9168C271.361 68.9168 265.731 65.7616 265.731 58.9072C265.731 52.0528 271.361 48.8432 277.78 48.8432ZM277.78 64.7552C282.295 64.7552 284.961 62.552 284.961 58.9072C284.961 55.2624 282.295 53.0048 277.78 53.0048C273.265 53.0048 270.599 55.2624 270.599 58.9072C270.599 62.552 273.265 64.7552 277.78 64.7552Z" fill="#D45A14"/>
<path d="M311.344 49.36V62.008L300.872 49.36H294.943V68.4H299.458V54.9632L310.61 68.4544L315.859 68.4V49.36H311.344Z" fill="#D45A14"/>
<path d="M330.307 58.9072C330.307 54.0384 326.907 51.5632 322.392 50.8288L323.099 46.5584C329.382 47.5104 335.067 50.9376 335.067 58.9072C335.067 66.8768 329.382 70.304 323.099 71.256L322.392 66.9856C326.907 66.2512 330.307 63.776 330.307 58.9072Z" fill="#D45A14"/>
<path d="M362.518 49.36H352.291V68.4H362.518C369.998 68.4 374.677 65.7616 374.677 58.9072C374.677 52.0528 369.998 49.36 362.518 49.36ZM362.573 64.2928H356.969V53.4672H362.573C367.795 53.4672 369.808 55.48 369.808 58.9072C369.808 62.3344 367.795 64.2928 362.573 64.2928Z" fill="#D45A14"/>
<path d="M395.688 68.4H400.584L391.499 49.36H384.753L375.669 68.4H380.565L382.469 64.32H393.784L395.688 68.4ZM384.264 60.4576L388.126 52.1888L391.989 60.4576H384.264Z" fill="#D45A14"/>
<path d="M420.744 49.36H399.636V53.4672H407.851V68.4H412.529V53.4672H420.744V49.36Z" fill="#D45A14"/>
<path d="M439.808 68.4H444.704L435.619 49.36H428.874L419.789 68.4H424.685L426.589 64.32H437.904L439.808 68.4ZM428.384 60.4576L432.247 52.1888L436.109 60.4576H428.384Z" fill="#D45A14"/>
</svg>
